<svg viewBox="-16 -32 880 192" width="880" height="192" xmlns="http://www.w3.org/2000/svg"><desc>Generated with https://github.com/Platane/snk</desc><style>:root{--cb:#1b1f230a;--cs:#e83a77;--ce:#161b22;--c0:#161b22;--c1:#E83A77;--c2:#FFC1E1;--c3:#FE84C4;--c4:#FF77BC;--c5:#F88CC7;--c6:#EF007F}.c{shape-rendering:geometricPrecision;fill:var(--ce);stroke-width:1px;stroke:var(--cb);animation:none 41100ms linear infinite;width:12px;height:12px}@keyframes c0{50.35%{fill:var(--c2)}50.37%,100%{fill:var(--ce)}}.c.c0{fill:var(--c2);animation-name:c0}@keyframes c1{0.96%{fill:var(--c1)}0.98%,100%{fill:var(--ce)}}.c.c1{fill:var(--c1);animation-name:c1}@keyframes c2{1.21%{fill:var(--c1)}1.23%,100%{fill:var(--ce)}}.c.c2{fill:var(--c1);animation-name:c2}@keyframes c3{49.14%{fill:var(--c2)}49.16%,100%{fill:var(--ce)}}.c.c3{fill:var(--c2);animation-name:c3}@keyframes c4{3.15%{fill:var(--c1)}3.17%,100%{fill:var(--ce)}}.c.c4{fill:var(--c1);animation-name:c4}@keyframes c5{2.91%{fill:var(--c1)}2.93%,100%{fill:var(--ce)}}.c.c5{fill:var(--c1);animation-name:c5}@keyframes c6{1.69%{fill:var(--c1)}1.71%,100%{fill:var(--ce)}}.c.c6{fill:var(--c1);animation-name:c6}@keyframes c7{75.9%{fill:var(--c3)}75.92%,100%{fill:var(--ce)}}.c.c7{fill:var(--c3);animation-name:c7}@keyframes c8{2.67%{fill:var(--c1)}2.69%,100%{fill:var(--ce)}}.c.c8{fill:var(--c1);animation-name:c8}@keyframes c9{4.61%{fill:var(--c1)}4.63%,100%{fill:var(--ce)}}.c.c9{fill:var(--c1);animation-name:c9}@keyframes ca{48.17%{fill:var(--c2)}48.19%,100%{fill:var(--ce)}}.c.ca{fill:var(--c2);animation-name:ca}@keyframes cb{47.68%{fill:var(--c1)}47.7%,100%{fill:var(--ce)}}.c.cb{fill:var(--c1);animation-name:cb}@keyframes cc{77.61%{fill:var(--c4)}77.63%,100%{fill:var(--ce)}}.c.cc{fill:var(--c4);animation-name:cc}@keyframes cd{6.07%{fill:var(--c1)}6.09%,100%{fill:var(--ce)}}.c.cd{fill:var(--c1);animation-name:cd}@keyframes ce{5.59%{fill:var(--c1)}5.61%,100%{fill:var(--ce)}}.c.ce{fill:var(--c1);animation-name:ce}@keyframes cf{7.78%{fill:var(--c1)}7.8%,100%{fill:var(--ce)}}.c.cf{fill:var(--c1);animation-name:cf}@keyframes cg{7.05%{fill:var(--c1)}7.07%,100%{fill:var(--ce)}}.c.cg{fill:var(--c1);animation-name:cg}@keyframes ch{6.56%{fill:var(--c1)}6.58%,100%{fill:var(--ce)}}.c.ch{fill:var(--c1);animation-name:ch}@keyframes ci{12.89%{fill:var(--c1)}12.91%,100%{fill:var(--ce)}}.c.ci{fill:var(--c1);animation-name:ci}@keyframes cj{53.03%{fill:var(--c2)}53.05%,100%{fill:var(--ce)}}.c.cj{fill:var(--c2);animation-name:cj}@keyframes ck{53.52%{fill:var(--c2)}53.54%,100%{fill:var(--ce)}}.c.ck{fill:var(--c2);animation-name:ck}@keyframes cl{10.94%{fill:var(--c1)}10.96%,100%{fill:var(--ce)}}.c.cl{fill:var(--c1);animation-name:cl}@keyframes cm{8.51%{fill:var(--c1)}8.53%,100%{fill:var(--ce)}}.c.cm{fill:var(--c1);animation-name:cm}@keyframes cn{8.75%{fill:var(--c1)}8.77%,100%{fill:var(--ce)}}.c.cn{fill:var(--c1);animation-name:cn}@keyframes co{10.7%{fill:var(--c1)}10.72%,100%{fill:var(--ce)}}.c.co{fill:var(--c1);animation-name:co}@keyframes cp{11.43%{fill:var(--c1)}11.45%,100%{fill:var(--ce)}}.c.cp{fill:var(--c1);animation-name:cp}@keyframes cq{8.99%{fill:var(--c1)}9.01%,100%{fill:var(--ce)}}.c.cq{fill:var(--c1);animation-name:cq}@keyframes cr{9.72%{fill:var(--c1)}9.74%,100%{fill:var(--ce)}}.c.cr{fill:var(--c1);animation-name:cr}@keyframes cs{14.59%{fill:var(--c1)}14.61%,100%{fill:var(--ce)}}.c.cs{fill:var(--c1);animation-name:cs}@keyframes ct{14.83%{fill:var(--c1)}14.85%,100%{fill:var(--ce)}}.c.ct{fill:var(--c1);animation-name:ct}@keyframes cu{15.08%{fill:var(--c1)}15.1%,100%{fill:var(--ce)}}.c.cu{fill:var(--c1);animation-name:cu}@keyframes cv{17.51%{fill:var(--c1)}17.53%,100%{fill:var(--ce)}}.c.cv{fill:var(--c1);animation-name:cv}@keyframes cw{15.81%{fill:var(--c1)}15.83%,100%{fill:var(--ce)}}.c.cw{fill:var(--c1);animation-name:cw}@keyframes cx{27%{fill:var(--c1)}27.02%,100%{fill:var(--ce)}}.c.cx{fill:var(--c1);animation-name:cx}@keyframes cy{19.94%{fill:var(--c1)}19.96%,100%{fill:var(--ce)}}.c.cy{fill:var(--c1);animation-name:cy}@keyframes cz{58.63%{fill:var(--c2)}58.65%,100%{fill:var(--ce)}}.c.cz{fill:var(--c2);animation-name:cz}@keyframes c10{25.29%{fill:var(--c1)}25.31%,100%{fill:var(--ce)}}.c.c10{fill:var(--c1);animation-name:c10}@keyframes c11{21.16%{fill:var(--c1)}21.18%,100%{fill:var(--ce)}}.c.c11{fill:var(--c1);animation-name:c11}@keyframes c12{21.4%{fill:var(--c1)}21.42%,100%{fill:var(--ce)}}.c.c12{fill:var(--c1);animation-name:c12}@keyframes c13{23.1%{fill:var(--c1)}23.12%,100%{fill:var(--ce)}}.c.c13{fill:var(--c1);animation-name:c13}@keyframes c14{23.59%{fill:var(--c1)}23.61%,100%{fill:var(--ce)}}.c.c14{fill:var(--c1);animation-name:c14}@keyframes c15{30.65%{fill:var(--c1)}30.67%,100%{fill:var(--ce)}}.c.c15{fill:var(--c1);animation-name:c15}@keyframes c16{30.89%{fill:var(--c1)}30.91%,100%{fill:var(--ce)}}.c.c16{fill:var(--c1);animation-name:c16}@keyframes c17{32.35%{fill:var(--c1)}32.37%,100%{fill:var(--ce)}}.c.c17{fill:var(--c1);animation-name:c17}@keyframes c18{37.22%{fill:var(--c1)}37.24%,100%{fill:var(--ce)}}.c.c18{fill:var(--c1);animation-name:c18}@keyframes c19{88.07%{fill:var(--c4)}88.09%,100%{fill:var(--ce)}}.c.c19{fill:var(--c4);animation-name:c19}@keyframes c1a{63.49%{fill:var(--c2)}63.51%,100%{fill:var(--ce)}}.c.c1a{fill:var(--c2);animation-name:c1a}@keyframes c1b{32.59%{fill:var(--c1)}32.61%,100%{fill:var(--ce)}}.c.c1b{fill:var(--c1);animation-name:c1b}@keyframes c1c{87.58%{fill:var(--c4)}87.6%,100%{fill:var(--ce)}}.c.c1c{fill:var(--c4);animation-name:c1c}@keyframes c1d{63.98%{fill:var(--c2)}64%,100%{fill:var(--ce)}}.c.c1d{fill:var(--c2);animation-name:c1d}@keyframes c1e{34.78%{fill:var(--c1)}34.8%,100%{fill:var(--ce)}}.c.c1e{fill:var(--c1);animation-name:c1e}@keyframes c1f{64.71%{fill:var(--c3)}64.73%,100%{fill:var(--ce)}}.c.c1f{fill:var(--c3);animation-name:c1f}@keyframes c1g{34.54%{fill:var(--c1)}34.56%,100%{fill:var(--ce)}}.c.c1g{fill:var(--c1);animation-name:c1g}@keyframes c1h{34.3%{fill:var(--c1)}34.32%,100%{fill:var(--ce)}}.c.c1h{fill:var(--c1);animation-name:c1h}@keyframes c1i{33.32%{fill:var(--c1)}33.34%,100%{fill:var(--ce)}}.c.c1i{fill:var(--c1);animation-name:c1i}@keyframes c1j{35.51%{fill:var(--c1)}35.53%,100%{fill:var(--ce)}}.c.c1j{fill:var(--c1);animation-name:c1j}.u{transform-origin:0 0;transform:scale(0,1);animation:none linear 41100ms infinite}@keyframes u0{0.96%{transform:scale(0.000,1)}0.98%,1.21%{transform:scale(0.023,1)}1.23%,1.69%{transform:scale(0.047,1)}1.71%,2.67%{transform:scale(0.070,1)}2.69%,2.91%{transform:scale(0.093,1)}2.93%,3.15%{transform:scale(0.116,1)}3.17%,4.61%{transform:scale(0.140,1)}4.63%,5.59%{transform:scale(0.163,1)}5.61%,6.07%{transform:scale(0.186,1)}6.09%,6.56%{transform:scale(0.209,1)}6.58%,7.05%{transform:scale(0.233,1)}7.07%,7.78%{transform:scale(0.256,1)}7.8%,8.51%{transform:scale(0.279,1)}8.53%,8.75%{transform:scale(0.302,1)}8.77%,8.99%{transform:scale(0.326,1)}9.01%,9.72%{transform:scale(0.349,1)}9.74%,10.7%{transform:scale(0.372,1)}10.72%,10.94%{transform:scale(0.395,1)}10.96%,11.43%{transform:scale(0.419,1)}11.45%,12.89%{transform:scale(0.442,1)}12.91%,14.59%{transform:scale(0.465,1)}14.61%,14.83%{transform:scale(0.488,1)}14.85%,15.08%{transform:scale(0.512,1)}15.1%,15.81%{transform:scale(0.535,1)}15.83%,17.51%{transform:scale(0.558,1)}17.53%,19.94%{transform:scale(0.581,1)}19.96%,21.16%{transform:scale(0.605,1)}21.18%,21.4%{transform:scale(0.628,1)}21.42%,23.1%{transform:scale(0.651,1)}23.12%,23.59%{transform:scale(0.674,1)}23.61%,25.29%{transform:scale(0.698,1)}25.31%,27%{transform:scale(0.721,1)}27.02%,30.65%{transform:scale(0.744,1)}30.67%,30.89%{transform:scale(0.767,1)}30.91%,32.35%{transform:scale(0.791,1)}32.37%,32.59%{transform:scale(0.814,1)}32.61%,33.32%{transform:scale(0.837,1)}33.34%,34.3%{transform:scale(0.860,1)}34.32%,34.54%{transform:scale(0.884,1)}34.56%,34.78%{transform:scale(0.907,1)}34.8%,35.51%{transform:scale(0.930,1)}35.53%,37.22%{transform:scale(0.953,1)}37.24%,47.68%{transform:scale(0.977,1)}47.7%,100%{transform:scale(1.000,1)}}.u.u0{fill:var(--c1);animation-name:u0;transform-origin:0.0px 0}@keyframes u1{48.17%{transform:scale(0.000,1)}48.19%,49.14%{transform:scale(0.125,1)}49.16%,50.35%{transform:scale(0.250,1)}50.37%,53.03%{transform:scale(0.375,1)}53.05%,53.52%{transform:scale(0.500,1)}53.54%,58.63%{transform:scale(0.625,1)}58.65%,63.49%{transform:scale(0.750,1)}63.51%,63.98%{transform:scale(0.875,1)}64%,100%{transform:scale(1.000,1)}}.u.u1{fill:var(--c2);animation-name:u1;transform-origin:651.1px 0}@keyframes u2{64.71%{transform:scale(0.000,1)}64.73%,75.9%{transform:scale(0.500,1)}75.92%,100%{transform:scale(1.000,1)}}.u.u2{fill:var(--c3);animation-name:u2;transform-origin:772.3px 0}@keyframes u3{77.61%{transform:scale(0.000,1)}77.63%,87.58%{transform:scale(0.333,1)}87.6%,88.07%{transform:scale(0.667,1)}88.09%,100%{transform:scale(1.000,1)}}.u.u3{fill:var(--c4);animation-name:u3;transform-origin:802.6px 0}.s{shape-rendering:geometricPrecision;fill:var(--cs);animation:none linear 41100ms infinite}@keyframes s0{0%,99.76%{transform:translate(0px,-16px)}0.24%{transform:translate(-16px,-16px)}0.73%{transform:translate(-16px,16px)}0.97%,50.61%{transform:translate(0px,16px)}1.22%,48.91%{transform:translate(0px,32px)}1.46%{transform:translate(16px,32px)}1.7%,49.39%,76.16%{transform:translate(16px,48px)}1.95%{transform:translate(32px,48px)}2.43%,4.38%{transform:translate(32px,80px)}2.92%{transform:translate(0px,80px)}3.16%{transform:translate(0px,64px)}3.41%{transform:translate(-16px,64px)}3.65%{transform:translate(-16px,80px)}4.62%{transform:translate(32px,96px)}5.6%{transform:translate(96px,96px)}6.08%{transform:translate(96px,64px)}6.57%{transform:translate(128px,64px)}6.81%{transform:translate(128px,48px)}7.06%{transform:translate(112px,48px)}7.79%{transform:translate(112px,0px)}8.52%{transform:translate(160px,0px)}8.76%,12.65%{transform:translate(160px,16px)}9.25%{transform:translate(192px,16px)}9.73%{transform:translate(192px,48px)}10.22%{transform:translate(160px,48px)}10.71%{transform:translate(160px,80px)}10.95%{transform:translate(144px,80px)}11.19%{transform:translate(144px,96px)}11.44%{transform:translate(160px,96px)}12.9%{transform:translate(144px,16px)}13.14%{transform:translate(144px,0px)}14.84%{transform:translate(256px,0px)}15.09%{transform:translate(256px,16px)}15.57%{transform:translate(288px,16px)}15.82%{transform:translate(288px,0px)}16.06%{transform:translate(272px,0px)}17.52%{transform:translate(272px,96px)}19.95%{transform:translate(432px,96px)}20.19%{transform:translate(432px,80px)}21.17%{transform:translate(496px,80px)}21.41%{transform:translate(496px,96px)}21.65%{transform:translate(512px,96px)}23.11%{transform:translate(512px,0px)}23.6%{transform:translate(544px,0px)}23.84%{transform:translate(544px,-16px)}25.06%{transform:translate(464px,-16px)}25.3%{transform:translate(464px,0px)}26.28%{transform:translate(400px,0px)}27.01%{transform:translate(400px,48px)}30.41%{transform:translate(624px,48px)}30.9%{transform:translate(624px,80px)}32.12%{transform:translate(704px,80px)}32.36%{transform:translate(704px,96px)}33.33%{transform:translate(768px,96px)}34.55%{transform:translate(768px,16px)}34.79%{transform:translate(752px,16px)}35.04%{transform:translate(752px,0px)}35.52%{transform:translate(784px,0px)}35.77%{transform:translate(784px,-16px)}36.74%{transform:translate(720px,-16px)}37.23%{transform:translate(720px,16px)}37.47%{transform:translate(704px,16px)}37.71%{transform:translate(704px,0px)}47.45%{transform:translate(64px,0px)}47.69%,51.58%{transform:translate(64px,16px)}47.93%{transform:translate(48px,16px)}48.18%{transform:translate(48px,32px)}49.15%{transform:translate(0px,48px)}50.12%{transform:translate(16px,0px)}50.36%{transform:translate(0px,0px)}51.82%{transform:translate(64px,32px)}53.04%{transform:translate(144px,32px)}53.53%{transform:translate(144px,64px)}58.15%{transform:translate(448px,64px)}58.64%{transform:translate(448px,96px)}62.77%{transform:translate(720px,96px)}63.5%{transform:translate(720px,48px)}63.75%{transform:translate(736px,48px)}63.99%,87.83%{transform:translate(736px,32px)}64.23%{transform:translate(752px,32px)}64.72%{transform:translate(752px,64px)}75.91%{transform:translate(16px,64px)}77.13%{transform:translate(80px,48px)}77.62%{transform:translate(80px,16px)}87.59%{transform:translate(736px,16px)}97.08%{transform:translate(128px,32px)}97.32%{transform:translate(128px,16px)}97.57%{transform:translate(112px,16px)}98.05%{transform:translate(112px,-16px)}}.s.s0{transform:translate(0px,-16px);animation-name:s0}@keyframes s1{0%,99.76%{transform:translate(16px,-16px)}0.49%{transform:translate(-16px,-16px)}0.97%{transform:translate(-16px,16px)}1.22%,50.85%{transform:translate(0px,16px)}1.46%,49.15%{transform:translate(0px,32px)}1.7%{transform:translate(16px,32px)}1.95%,49.64%,76.4%{transform:translate(16px,48px)}2.19%{transform:translate(32px,48px)}2.68%,4.62%{transform:translate(32px,80px)}3.16%{transform:translate(0px,80px)}3.41%{transform:translate(0px,64px)}3.65%{transform:translate(-16px,64px)}3.89%{transform:translate(-16px,80px)}4.87%{transform:translate(32px,96px)}5.84%{transform:translate(96px,96px)}6.33%{transform:translate(96px,64px)}6.81%{transform:translate(128px,64px)}7.06%{transform:translate(128px,48px)}7.3%{transform:translate(112px,48px)}8.03%{transform:translate(112px,0px)}8.76%{transform:translate(160px,0px)}9%,12.9%{transform:translate(160px,16px)}9.49%{transform:translate(192px,16px)}9.98%{transform:translate(192px,48px)}10.46%{transform:translate(160px,48px)}10.95%{transform:translate(160px,80px)}11.19%{transform:translate(144px,80px)}11.44%{transform:translate(144px,96px)}11.68%{transform:translate(160px,96px)}13.14%{transform:translate(144px,16px)}13.38%{transform:translate(144px,0px)}15.09%{transform:translate(256px,0px)}15.33%{transform:translate(256px,16px)}15.82%{transform:translate(288px,16px)}16.06%{transform:translate(288px,0px)}16.3%{transform:translate(272px,0px)}17.76%{transform:translate(272px,96px)}20.19%{transform:translate(432px,96px)}20.44%{transform:translate(432px,80px)}21.41%{transform:translate(496px,80px)}21.65%{transform:translate(496px,96px)}21.9%{transform:translate(512px,96px)}23.36%{transform:translate(512px,0px)}23.84%{transform:translate(544px,0px)}24.09%{transform:translate(544px,-16px)}25.3%{transform:translate(464px,-16px)}25.55%{transform:translate(464px,0px)}26.52%{transform:translate(400px,0px)}27.25%{transform:translate(400px,48px)}30.66%{transform:translate(624px,48px)}31.14%{transform:translate(624px,80px)}32.36%{transform:translate(704px,80px)}32.6%{transform:translate(704px,96px)}33.58%{transform:translate(768px,96px)}34.79%{transform:translate(768px,16px)}35.04%{transform:translate(752px,16px)}35.28%{transform:translate(752px,0px)}35.77%{transform:translate(784px,0px)}36.01%{transform:translate(784px,-16px)}36.98%{transform:translate(720px,-16px)}37.47%{transform:translate(720px,16px)}37.71%{transform:translate(704px,16px)}37.96%{transform:translate(704px,0px)}47.69%{transform:translate(64px,0px)}47.93%,51.82%{transform:translate(64px,16px)}48.18%{transform:translate(48px,16px)}48.42%{transform:translate(48px,32px)}49.39%{transform:translate(0px,48px)}50.36%{transform:translate(16px,0px)}50.61%{transform:translate(0px,0px)}52.07%{transform:translate(64px,32px)}53.28%{transform:translate(144px,32px)}53.77%{transform:translate(144px,64px)}58.39%{transform:translate(448px,64px)}58.88%{transform:translate(448px,96px)}63.02%{transform:translate(720px,96px)}63.75%{transform:translate(720px,48px)}63.99%{transform:translate(736px,48px)}64.23%,88.08%{transform:translate(736px,32px)}64.48%{transform:translate(752px,32px)}64.96%{transform:translate(752px,64px)}76.16%{transform:translate(16px,64px)}77.37%{transform:translate(80px,48px)}77.86%{transform:translate(80px,16px)}87.83%{transform:translate(736px,16px)}97.32%{transform:translate(128px,32px)}97.57%{transform:translate(128px,16px)}97.81%{transform:translate(112px,16px)}98.3%{transform:translate(112px,-16px)}}.s.s1{transform:translate(16px,-16px);animation-name:s1}@keyframes s2{0%,99.76%{transform:translate(32px,-16px)}0.73%{transform:translate(-16px,-16px)}1.22%{transform:translate(-16px,16px)}1.46%,51.09%{transform:translate(0px,16px)}1.7%,49.39%{transform:translate(0px,32px)}1.95%{transform:translate(16px,32px)}2.19%,49.88%,76.64%{transform:translate(16px,48px)}2.43%{transform:translate(32px,48px)}2.92%,4.87%{transform:translate(32px,80px)}3.41%{transform:translate(0px,80px)}3.65%{transform:translate(0px,64px)}3.89%{transform:translate(-16px,64px)}4.14%{transform:translate(-16px,80px)}5.11%{transform:translate(32px,96px)}6.08%{transform:translate(96px,96px)}6.57%{transform:translate(96px,64px)}7.06%{transform:translate(128px,64px)}7.3%{transform:translate(128px,48px)}7.54%{transform:translate(112px,48px)}8.27%{transform:translate(112px,0px)}9%{transform:translate(160px,0px)}9.25%,13.14%{transform:translate(160px,16px)}9.73%{transform:translate(192px,16px)}10.22%{transform:translate(192px,48px)}10.71%{transform:translate(160px,48px)}11.19%{transform:translate(160px,80px)}11.44%{transform:translate(144px,80px)}11.68%{transform:translate(144px,96px)}11.92%{transform:translate(160px,96px)}13.38%{transform:translate(144px,16px)}13.63%{transform:translate(144px,0px)}15.33%{transform:translate(256px,0px)}15.57%{transform:translate(256px,16px)}16.06%{transform:translate(288px,16px)}16.3%{transform:translate(288px,0px)}16.55%{transform:translate(272px,0px)}18%{transform:translate(272px,96px)}20.44%{transform:translate(432px,96px)}20.68%{transform:translate(432px,80px)}21.65%{transform:translate(496px,80px)}21.9%{transform:translate(496px,96px)}22.14%{transform:translate(512px,96px)}23.6%{transform:translate(512px,0px)}24.09%{transform:translate(544px,0px)}24.33%{transform:translate(544px,-16px)}25.55%{transform:translate(464px,-16px)}25.79%{transform:translate(464px,0px)}26.76%{transform:translate(400px,0px)}27.49%{transform:translate(400px,48px)}30.9%{transform:translate(624px,48px)}31.39%{transform:translate(624px,80px)}32.6%{transform:translate(704px,80px)}32.85%{transform:translate(704px,96px)}33.82%{transform:translate(768px,96px)}35.04%{transform:translate(768px,16px)}35.28%{transform:translate(752px,16px)}35.52%{transform:translate(752px,0px)}36.01%{transform:translate(784px,0px)}36.25%{transform:translate(784px,-16px)}37.23%{transform:translate(720px,-16px)}37.71%{transform:translate(720px,16px)}37.96%{transform:translate(704px,16px)}38.2%{transform:translate(704px,0px)}47.93%{transform:translate(64px,0px)}48.18%,52.07%{transform:translate(64px,16px)}48.42%{transform:translate(48px,16px)}48.66%{transform:translate(48px,32px)}49.64%{transform:translate(0px,48px)}50.61%{transform:translate(16px,0px)}50.85%{transform:translate(0px,0px)}52.31%{transform:translate(64px,32px)}53.53%{transform:translate(144px,32px)}54.01%{transform:translate(144px,64px)}58.64%{transform:translate(448px,64px)}59.12%{transform:translate(448px,96px)}63.26%{transform:translate(720px,96px)}63.99%{transform:translate(720px,48px)}64.23%{transform:translate(736px,48px)}64.48%,88.32%{transform:translate(736px,32px)}64.72%{transform:translate(752px,32px)}65.21%{transform:translate(752px,64px)}76.4%{transform:translate(16px,64px)}77.62%{transform:translate(80px,48px)}78.1%{transform:translate(80px,16px)}88.08%{transform:translate(736px,16px)}97.57%{transform:translate(128px,32px)}97.81%{transform:translate(128px,16px)}98.05%{transform:translate(112px,16px)}98.54%{transform:translate(112px,-16px)}}.s.s2{transform:translate(32px,-16px);animation-name:s2}@keyframes s3{0%,99.76%{transform:translate(48px,-16px)}0.97%{transform:translate(-16px,-16px)}1.46%{transform:translate(-16px,16px)}1.7%,51.34%{transform:translate(0px,16px)}1.95%,49.64%{transform:translate(0px,32px)}2.19%{transform:translate(16px,32px)}2.43%,50.12%,76.89%{transform:translate(16px,48px)}2.68%{transform:translate(32px,48px)}3.16%,5.11%{transform:translate(32px,80px)}3.65%{transform:translate(0px,80px)}3.89%{transform:translate(0px,64px)}4.14%{transform:translate(-16px,64px)}4.38%{transform:translate(-16px,80px)}5.35%{transform:translate(32px,96px)}6.33%{transform:translate(96px,96px)}6.81%{transform:translate(96px,64px)}7.3%{transform:translate(128px,64px)}7.54%{transform:translate(128px,48px)}7.79%{transform:translate(112px,48px)}8.52%{transform:translate(112px,0px)}9.25%{transform:translate(160px,0px)}9.49%,13.38%{transform:translate(160px,16px)}9.98%{transform:translate(192px,16px)}10.46%{transform:translate(192px,48px)}10.95%{transform:translate(160px,48px)}11.44%{transform:translate(160px,80px)}11.68%{transform:translate(144px,80px)}11.92%{transform:translate(144px,96px)}12.17%{transform:translate(160px,96px)}13.63%{transform:translate(144px,16px)}13.87%{transform:translate(144px,0px)}15.57%{transform:translate(256px,0px)}15.82%{transform:translate(256px,16px)}16.3%{transform:translate(288px,16px)}16.55%{transform:translate(288px,0px)}16.79%{transform:translate(272px,0px)}18.25%{transform:translate(272px,96px)}20.68%{transform:translate(432px,96px)}20.92%{transform:translate(432px,80px)}21.9%{transform:translate(496px,80px)}22.14%{transform:translate(496px,96px)}22.38%{transform:translate(512px,96px)}23.84%{transform:translate(512px,0px)}24.33%{transform:translate(544px,0px)}24.57%{transform:translate(544px,-16px)}25.79%{transform:translate(464px,-16px)}26.03%{transform:translate(464px,0px)}27.01%{transform:translate(400px,0px)}27.74%{transform:translate(400px,48px)}31.14%{transform:translate(624px,48px)}31.63%{transform:translate(624px,80px)}32.85%{transform:translate(704px,80px)}33.09%{transform:translate(704px,96px)}34.06%{transform:translate(768px,96px)}35.28%{transform:translate(768px,16px)}35.52%{transform:translate(752px,16px)}35.77%{transform:translate(752px,0px)}36.25%{transform:translate(784px,0px)}36.5%{transform:translate(784px,-16px)}37.47%{transform:translate(720px,-16px)}37.96%{transform:translate(720px,16px)}38.2%{transform:translate(704px,16px)}38.44%{transform:translate(704px,0px)}48.18%{transform:translate(64px,0px)}48.42%,52.31%{transform:translate(64px,16px)}48.66%{transform:translate(48px,16px)}48.91%{transform:translate(48px,32px)}49.88%{transform:translate(0px,48px)}50.85%{transform:translate(16px,0px)}51.09%{transform:translate(0px,0px)}52.55%{transform:translate(64px,32px)}53.77%{transform:translate(144px,32px)}54.26%{transform:translate(144px,64px)}58.88%{transform:translate(448px,64px)}59.37%{transform:translate(448px,96px)}63.5%{transform:translate(720px,96px)}64.23%{transform:translate(720px,48px)}64.48%{transform:translate(736px,48px)}64.72%,88.56%{transform:translate(736px,32px)}64.96%{transform:translate(752px,32px)}65.45%{transform:translate(752px,64px)}76.64%{transform:translate(16px,64px)}77.86%{transform:translate(80px,48px)}78.35%{transform:translate(80px,16px)}88.32%{transform:translate(736px,16px)}97.81%{transform:translate(128px,32px)}98.05%{transform:translate(128px,16px)}98.3%{transform:translate(112px,16px)}98.78%{transform:translate(112px,-16px)}}.s.s3{transform:translate(48px,-16px);animation-name:s3}</style><rect class="c c0" x="2" y="2" rx="2" ry="2"/><rect class="c c1" x="2" y="18" rx="2" ry="2"/><rect class="c c2" x="2" y="34" rx="2" ry="2"/><rect class="c c3" x="2" y="50" rx="2" ry="2"/><rect class="c c4" x="2" y="66" rx="2" ry="2"/><rect class="c c5" x="2" y="82" rx="2" ry="2"/><rect class="c" x="2" y="98" rx="2" ry="2"/><rect class="c" x="18" y="2" rx="2" ry="2"/><rect class="c" x="18" y="18" rx="2" ry="2"/><rect class="c" x="18" y="34" rx="2" ry="2"/><rect class="c c6" x="18" y="50" rx="2" ry="2"/><rect class="c c7" x="18" y="66" rx="2" ry="2"/><rect class="c c8" x="18" y="82" rx="2" ry="2"/><rect class="c" x="18" y="98" rx="2" ry="2"/><rect class="c" x="34" y="2" rx="2" ry="2"/><rect class="c" x="34" y="18" rx="2" ry="2"/><rect class="c" x="34" y="34" rx="2" ry="2"/><rect class="c" x="34" y="50" rx="2" ry="2"/><rect class="c" x="34" y="66" rx="2" ry="2"/><rect class="c" x="34" y="82" rx="2" ry="2"/><rect class="c c9" x="34" y="98" rx="2" ry="2"/><rect class="c" x="50" y="2" rx="2" ry="2"/><rect class="c" x="50" y="18" rx="2" ry="2"/><rect class="c ca" x="50" y="34" rx="2" ry="2"/><rect class="c" x="50" y="50" rx="2" ry="2"/><rect class="c" x="50" y="66" rx="2" ry="2"/><rect class="c" x="50" y="82" rx="2" ry="2"/><rect class="c" x="50" y="98" rx="2" ry="2"/><rect class="c" x="66" y="2" rx="2" ry="2"/><rect class="c cb" x="66" y="18" rx="2" ry="2"/><rect class="c" x="66" y="34" rx="2" ry="2"/><rect class="c" x="66" y="50" rx="2" ry="2"/><rect class="c" x="66" y="66" rx="2" ry="2"/><rect class="c" x="66" y="82" rx="2" ry="2"/><rect class="c" x="66" y="98" rx="2" ry="2"/><rect class="c" x="82" y="2" rx="2" ry="2"/><rect class="c cc" x="82" y="18" rx="2" ry="2"/><rect class="c" x="82" y="34" rx="2" ry="2"/><rect class="c" x="82" y="50" rx="2" ry="2"/><rect class="c" x="82" y="66" rx="2" ry="2"/><rect class="c" x="82" y="82" rx="2" ry="2"/><rect class="c" x="82" y="98" rx="2" ry="2"/><rect class="c" x="98" y="2" rx="2" ry="2"/><rect class="c" x="98" y="18" rx="2" ry="2"/><rect class="c" x="98" y="34" rx="2" ry="2"/><rect class="c" x="98" y="50" rx="2" ry="2"/><rect class="c cd" x="98" y="66" rx="2" ry="2"/><rect class="c" x="98" y="82" rx="2" ry="2"/><rect class="c ce" x="98" y="98" rx="2" ry="2"/><rect class="c cf" x="114" y="2" rx="2" ry="2"/><rect class="c" x="114" y="18" rx="2" ry="2"/><rect class="c" x="114" y="34" rx="2" ry="2"/><rect class="c cg" x="114" y="50" rx="2" ry="2"/><rect class="c" x="114" y="66" rx="2" ry="2"/><rect class="c" x="114" y="82" rx="2" ry="2"/><rect class="c" x="114" y="98" rx="2" ry="2"/><rect class="c" x="130" y="2" rx="2" ry="2"/><rect class="c" x="130" y="18" rx="2" ry="2"/><rect class="c" x="130" y="34" rx="2" ry="2"/><rect class="c" x="130" y="50" rx="2" ry="2"/><rect class="c ch" x="130" y="66" rx="2" ry="2"/><rect class="c" x="130" y="82" rx="2" ry="2"/><rect class="c" x="130" y="98" rx="2" ry="2"/><rect class="c" x="146" y="2" rx="2" ry="2"/><rect class="c ci" x="146" y="18" rx="2" ry="2"/><rect class="c cj" x="146" y="34" rx="2" ry="2"/><rect class="c" x="146" y="50" rx="2" ry="2"/><rect class="c ck" x="146" y="66" rx="2" ry="2"/><rect class="c cl" x="146" y="82" rx="2" ry="2"/><rect class="c" x="146" y="98" rx="2" ry="2"/><rect class="c cm" x="162" y="2" rx="2" ry="2"/><rect class="c cn" x="162" y="18" rx="2" ry="2"/><rect class="c" x="162" y="34" rx="2" ry="2"/><rect class="c" x="162" y="50" rx="2" ry="2"/><rect class="c" x="162" y="66" rx="2" ry="2"/><rect class="c co" x="162" y="82" rx="2" ry="2"/><rect class="c cp" x="162" y="98" rx="2" ry="2"/><rect class="c" x="178" y="2" rx="2" ry="2"/><rect class="c cq" x="178" y="18" rx="2" ry="2"/><rect class="c" x="178" y="34" rx="2" ry="2"/><rect class="c" x="178" y="50" rx="2" ry="2"/><rect class="c" x="178" y="66" rx="2" ry="2"/><rect class="c" x="178" y="82" rx="2" ry="2"/><rect class="c" x="178" y="98" rx="2" ry="2"/><rect class="c" x="194" y="2" rx="2" ry="2"/><rect class="c" x="194" y="18" rx="2" ry="2"/><rect class="c" x="194" y="34" rx="2" ry="2"/><rect class="c cr" x="194" y="50" rx="2" ry="2"/><rect class="c" x="194" y="66" rx="2" ry="2"/><rect class="c" x="194" y="82" rx="2" ry="2"/><rect class="c" x="194" y="98" rx="2" ry="2"/><rect class="c" x="210" y="2" rx="2" ry="2"/><rect class="c" x="210" y="18" rx="2" ry="2"/><rect class="c" x="210" y="34" rx="2" ry="2"/><rect class="c" x="210" y="50" rx="2" ry="2"/><rect class="c" x="210" y="66" rx="2" ry="2"/><rect class="c" x="210" y="82" rx="2" ry="2"/><rect class="c" x="210" y="98" rx="2" ry="2"/><rect class="c" x="226" y="2" rx="2" ry="2"/><rect class="c" x="226" y="18" rx="2" ry="2"/><rect class="c" x="226" y="34" rx="2" ry="2"/><rect class="c" x="226" y="50" rx="2" ry="2"/><rect class="c" x="226" y="66" rx="2" ry="2"/><rect class="c" x="226" y="82" rx="2" ry="2"/><rect class="c" x="226" y="98" rx="2" ry="2"/><rect class="c cs" x="242" y="2" rx="2" ry="2"/><rect class="c" x="242" y="18" rx="2" ry="2"/><rect class="c" x="242" y="34" rx="2" ry="2"/><rect class="c" x="242" y="50" rx="2" ry="2"/><rect class="c" x="242" y="66" rx="2" ry="2"/><rect class="c" x="242" y="82" rx="2" ry="2"/><rect class="c" x="242" y="98" rx="2" ry="2"/><rect class="c ct" x="258" y="2" rx="2" ry="2"/><rect class="c cu" x="258" y="18" rx="2" ry="2"/><rect class="c" x="258" y="34" rx="2" ry="2"/><rect class="c" x="258" y="50" rx="2" ry="2"/><rect class="c" x="258" y="66" rx="2" ry="2"/><rect class="c" x="258" y="82" rx="2" ry="2"/><rect class="c" x="258" y="98" rx="2" ry="2"/><rect class="c" x="274" y="2" rx="2" ry="2"/><rect class="c" x="274" y="18" rx="2" ry="2"/><rect class="c" x="274" y="34" rx="2" ry="2"/><rect class="c" x="274" y="50" rx="2" ry="2"/><rect class="c" x="274" y="66" rx="2" ry="2"/><rect class="c" x="274" y="82" rx="2" ry="2"/><rect class="c cv" x="274" y="98" rx="2" ry="2"/><rect class="c cw" x="290" y="2" rx="2" ry="2"/><rect class="c" x="290" y="18" rx="2" ry="2"/><rect class="c" x="290" y="34" rx="2" ry="2"/><rect class="c" x="290" y="50" rx="2" ry="2"/><rect class="c" x="290" y="66" rx="2" ry="2"/><rect class="c" x="290" y="82" rx="2" ry="2"/><rect class="c" x="290" y="98" rx="2" ry="2"/><rect class="c" x="306" y="2" rx="2" ry="2"/><rect class="c" x="306" y="18" rx="2" ry="2"/><rect class="c" x="306" y="34" rx="2" ry="2"/><rect class="c" x="306" y="50" rx="2" ry="2"/><rect class="c" x="306" y="66" rx="2" ry="2"/><rect class="c" x="306" y="82" rx="2" ry="2"/><rect class="c" x="306" y="98" rx="2" ry="2"/><rect class="c" x="322" y="2" rx="2" ry="2"/><rect class="c" x="322" y="18" rx="2" ry="2"/><rect class="c" x="322" y="34" rx="2" ry="2"/><rect class="c" x="322" y="50" rx="2" ry="2"/><rect class="c" x="322" y="66" rx="2" ry="2"/><rect class="c" x="322" y="82" rx="2" ry="2"/><rect class="c" x="322" y="98" rx="2" ry="2"/><rect class="c" x="338" y="2" rx="2" ry="2"/><rect class="c" x="338" y="18" rx="2" ry="2"/><rect class="c" x="338" y="34" rx="2" ry="2"/><rect class="c" x="338" y="50" rx="2" ry="2"/><rect class="c" x="338" y="66" rx="2" ry="2"/><rect class="c" x="338" y="82" rx="2" ry="2"/><rect class="c" x="338" y="98" rx="2" ry="2"/><rect class="c" x="354" y="2" rx="2" ry="2"/><rect class="c" x="354" y="18" rx="2" ry="2"/><rect class="c" x="354" y="34" rx="2" ry="2"/><rect class="c" x="354" y="50" rx="2" ry="2"/><rect class="c" x="354" y="66" rx="2" ry="2"/><rect class="c" x="354" y="82" rx="2" ry="2"/><rect class="c" x="354" y="98" rx="2" ry="2"/><rect class="c" x="370" y="2" rx="2" ry="2"/><rect class="c" x="370" y="18" rx="2" ry="2"/><rect class="c" x="370" y="34" rx="2" ry="2"/><rect class="c" x="370" y="50" rx="2" ry="2"/><rect class="c" x="370" y="66" rx="2" ry="2"/><rect class="c" x="370" y="82" rx="2" ry="2"/><rect class="c" x="370" y="98" rx="2" ry="2"/><rect class="c" x="386" y="2" rx="2" ry="2"/><rect class="c" x="386" y="18" rx="2" ry="2"/><rect class="c" x="386" y="34" rx="2" ry="2"/><rect class="c" x="386" y="50" rx="2" ry="2"/><rect class="c" x="386" y="66" rx="2" ry="2"/><rect class="c" x="386" y="82" rx="2" ry="2"/><rect class="c" x="386" y="98" rx="2" ry="2"/><rect class="c" x="402" y="2" rx="2" ry="2"/><rect class="c" x="402" y="18" rx="2" ry="2"/><rect class="c" x="402" y="34" rx="2" ry="2"/><rect class="c cx" x="402" y="50" rx="2" ry="2"/><rect class="c" x="402" y="66" rx="2" ry="2"/><rect class="c" x="402" y="82" rx="2" ry="2"/><rect class="c" x="402" y="98" rx="2" ry="2"/><rect class="c" x="418" y="2" rx="2" ry="2"/><rect class="c" x="418" y="18" rx="2" ry="2"/><rect class="c" x="418" y="34" rx="2" ry="2"/><rect class="c" x="418" y="50" rx="2" ry="2"/><rect class="c" x="418" y="66" rx="2" ry="2"/><rect class="c" x="418" y="82" rx="2" ry="2"/><rect class="c" x="418" y="98" rx="2" ry="2"/><rect class="c" x="434" y="2" rx="2" ry="2"/><rect class="c" x="434" y="18" rx="2" ry="2"/><rect class="c" x="434" y="34" rx="2" ry="2"/><rect class="c" x="434" y="50" rx="2" ry="2"/><rect class="c" x="434" y="66" rx="2" ry="2"/><rect class="c" x="434" y="82" rx="2" ry="2"/><rect class="c cy" x="434" y="98" rx="2" ry="2"/><rect class="c" x="450" y="2" rx="2" ry="2"/><rect class="c" x="450" y="18" rx="2" ry="2"/><rect class="c" x="450" y="34" rx="2" ry="2"/><rect class="c" x="450" y="50" rx="2" ry="2"/><rect class="c" x="450" y="66" rx="2" ry="2"/><rect class="c" x="450" y="82" rx="2" ry="2"/><rect class="c cz" x="450" y="98" rx="2" ry="2"/><rect class="c c10" x="466" y="2" rx="2" ry="2"/><rect class="c" x="466" y="18" rx="2" ry="2"/><rect class="c" x="466" y="34" rx="2" ry="2"/><rect class="c" x="466" y="50" rx="2" ry="2"/><rect class="c" x="466" y="66" rx="2" ry="2"/><rect class="c" x="466" y="82" rx="2" ry="2"/><rect class="c" x="466" y="98" rx="2" ry="2"/><rect class="c" x="482" y="2" rx="2" ry="2"/><rect class="c" x="482" y="18" rx="2" ry="2"/><rect class="c" x="482" y="34" rx="2" ry="2"/><rect class="c" x="482" y="50" rx="2" ry="2"/><rect class="c" x="482" y="66" rx="2" ry="2"/><rect class="c" x="482" y="82" rx="2" ry="2"/><rect class="c" x="482" y="98" rx="2" ry="2"/><rect class="c" x="498" y="2" rx="2" ry="2"/><rect class="c" x="498" y="18" rx="2" ry="2"/><rect class="c" x="498" y="34" rx="2" ry="2"/><rect class="c" x="498" y="50" rx="2" ry="2"/><rect class="c" x="498" y="66" rx="2" ry="2"/><rect class="c c11" x="498" y="82" rx="2" ry="2"/><rect class="c c12" x="498" y="98" rx="2" ry="2"/><rect class="c c13" x="514" y="2" rx="2" ry="2"/><rect class="c" x="514" y="18" rx="2" ry="2"/><rect class="c" x="514" y="34" rx="2" ry="2"/><rect class="c" x="514" y="50" rx="2" ry="2"/><rect class="c" x="514" y="66" rx="2" ry="2"/><rect class="c" x="514" y="82" rx="2" ry="2"/><rect class="c" x="514" y="98" rx="2" ry="2"/><rect class="c" x="530" y="2" rx="2" ry="2"/><rect class="c" x="530" y="18" rx="2" ry="2"/><rect class="c" x="530" y="34" rx="2" ry="2"/><rect class="c" x="530" y="50" rx="2" ry="2"/><rect class="c" x="530" y="66" rx="2" ry="2"/><rect class="c" x="530" y="82" rx="2" ry="2"/><rect class="c" x="530" y="98" rx="2" ry="2"/><rect class="c c14" x="546" y="2" rx="2" ry="2"/><rect class="c" x="546" y="18" rx="2" ry="2"/><rect class="c" x="546" y="34" rx="2" ry="2"/><rect class="c" x="546" y="50" rx="2" ry="2"/><rect class="c" x="546" y="66" rx="2" ry="2"/><rect class="c" x="546" y="82" rx="2" ry="2"/><rect class="c" x="546" y="98" rx="2" ry="2"/><rect class="c" x="562" y="2" rx="2" ry="2"/><rect class="c" x="562" y="18" rx="2" ry="2"/><rect class="c" x="562" y="34" rx="2" ry="2"/><rect class="c" x="562" y="50" rx="2" ry="2"/><rect class="c" x="562" y="66" rx="2" ry="2"/><rect class="c" x="562" y="82" rx="2" ry="2"/><rect class="c" x="562" y="98" rx="2" ry="2"/><rect class="c" x="578" y="2" rx="2" ry="2"/><rect class="c" x="578" y="18" rx="2" ry="2"/><rect class="c" x="578" y="34" rx="2" ry="2"/><rect class="c" x="578" y="50" rx="2" ry="2"/><rect class="c" x="578" y="66" rx="2" ry="2"/><rect class="c" x="578" y="82" rx="2" ry="2"/><rect class="c" x="578" y="98" rx="2" ry="2"/><rect class="c" x="594" y="2" rx="2" ry="2"/><rect class="c" x="594" y="18" rx="2" ry="2"/><rect class="c" x="594" y="34" rx="2" ry="2"/><rect class="c" x="594" y="50" rx="2" ry="2"/><rect class="c" x="594" y="66" rx="2" ry="2"/><rect class="c" x="594" y="82" rx="2" ry="2"/><rect class="c" x="594" y="98" rx="2" ry="2"/><rect class="c" x="610" y="2" rx="2" ry="2"/><rect class="c" x="610" y="18" rx="2" ry="2"/><rect class="c" x="610" y="34" rx="2" ry="2"/><rect class="c" x="610" y="50" rx="2" ry="2"/><rect class="c" x="610" y="66" rx="2" ry="2"/><rect class="c" x="610" y="82" rx="2" ry="2"/><rect class="c" x="610" y="98" rx="2" ry="2"/><rect class="c" x="626" y="2" rx="2" ry="2"/><rect class="c" x="626" y="18" rx="2" ry="2"/><rect class="c" x="626" y="34" rx="2" ry="2"/><rect class="c" x="626" y="50" rx="2" ry="2"/><rect class="c c15" x="626" y="66" rx="2" ry="2"/><rect class="c c16" x="626" y="82" rx="2" ry="2"/><rect class="c" x="626" y="98" rx="2" ry="2"/><rect class="c" x="642" y="2" rx="2" ry="2"/><rect class="c" x="642" y="18" rx="2" ry="2"/><rect class="c" x="642" y="34" rx="2" ry="2"/><rect class="c" x="642" y="50" rx="2" ry="2"/><rect class="c" x="642" y="66" rx="2" ry="2"/><rect class="c" x="642" y="82" rx="2" ry="2"/><rect class="c" x="642" y="98" rx="2" ry="2"/><rect class="c" x="658" y="2" rx="2" ry="2"/><rect class="c" x="658" y="18" rx="2" ry="2"/><rect class="c" x="658" y="34" rx="2" ry="2"/><rect class="c" x="658" y="50" rx="2" ry="2"/><rect class="c" x="658" y="66" rx="2" ry="2"/><rect class="c" x="658" y="82" rx="2" ry="2"/><rect class="c" x="658" y="98" rx="2" ry="2"/><rect class="c" x="674" y="2" rx="2" ry="2"/><rect class="c" x="674" y="18" rx="2" ry="2"/><rect class="c" x="674" y="34" rx="2" ry="2"/><rect class="c" x="674" y="50" rx="2" ry="2"/><rect class="c" x="674" y="66" rx="2" ry="2"/><rect class="c" x="674" y="82" rx="2" ry="2"/><rect class="c" x="674" y="98" rx="2" ry="2"/><rect class="c" x="690" y="2" rx="2" ry="2"/><rect class="c" x="690" y="18" rx="2" ry="2"/><rect class="c" x="690" y="34" rx="2" ry="2"/><rect class="c" x="690" y="50" rx="2" ry="2"/><rect class="c" x="690" y="66" rx="2" ry="2"/><rect class="c" x="690" y="82" rx="2" ry="2"/><rect class="c" x="690" y="98" rx="2" ry="2"/><rect class="c" x="706" y="2" rx="2" ry="2"/><rect class="c" x="706" y="18" rx="2" ry="2"/><rect class="c" x="706" y="34" rx="2" ry="2"/><rect class="c" x="706" y="50" rx="2" ry="2"/><rect class="c" x="706" y="66" rx="2" ry="2"/><rect class="c" x="706" y="82" rx="2" ry="2"/><rect class="c c17" x="706" y="98" rx="2" ry="2"/><rect class="c" x="722" y="2" rx="2" ry="2"/><rect class="c c18" x="722" y="18" rx="2" ry="2"/><rect class="c c19" x="722" y="34" rx="2" ry="2"/><rect class="c c1a" x="722" y="50" rx="2" ry="2"/><rect class="c" x="722" y="66" rx="2" ry="2"/><rect class="c" x="722" y="82" rx="2" ry="2"/><rect class="c c1b" x="722" y="98" rx="2" ry="2"/><rect class="c" x="738" y="2" rx="2" ry="2"/><rect class="c c1c" x="738" y="18" rx="2" ry="2"/><rect class="c c1d" x="738" y="34" rx="2" ry="2"/><rect class="c" x="738" y="50" rx="2" ry="2"/><rect class="c" x="738" y="66" rx="2" ry="2"/><rect class="c" x="738" y="82" rx="2" ry="2"/><rect class="c" x="738" y="98" rx="2" ry="2"/><rect class="c" x="754" y="2" rx="2" ry="2"/><rect class="c c1e" x="754" y="18" rx="2" ry="2"/><rect class="c" x="754" y="34" rx="2" ry="2"/><rect class="c" x="754" y="50" rx="2" ry="2"/><rect class="c c1f" x="754" y="66" rx="2" ry="2"/><rect class="c" x="754" y="82" rx="2" ry="2"/><rect class="c" x="754" y="98" rx="2" ry="2"/><rect class="c" x="770" y="2" rx="2" ry="2"/><rect class="c c1g" x="770" y="18" rx="2" ry="2"/><rect class="c c1h" x="770" y="34" rx="2" ry="2"/><rect class="c" x="770" y="50" rx="2" ry="2"/><rect class="c" x="770" y="66" rx="2" ry="2"/><rect class="c" x="770" y="82" rx="2" ry="2"/><rect class="c c1i" x="770" y="98" rx="2" ry="2"/><rect class="c c1j" x="786" y="2" rx="2" ry="2"/><rect class="c" x="786" y="18" rx="2" ry="2"/><rect class="c" x="786" y="34" rx="2" ry="2"/><rect class="c" x="786" y="50" rx="2" ry="2"/><rect class="c" x="786" y="66" rx="2" ry="2"/><rect class="c" x="786" y="82" rx="2" ry="2"/><rect class="c" x="786" y="98" rx="2" ry="2"/><rect class="c" x="802" y="2" rx="2" ry="2"/><rect class="c" x="802" y="18" rx="2" ry="2"/><rect class="c" x="802" y="34" rx="2" ry="2"/><rect class="c" x="802" y="50" rx="2" ry="2"/><rect class="c" x="802" y="66" rx="2" ry="2"/><rect class="c" x="802" y="82" rx="2" ry="2"/><rect class="c" x="802" y="98" rx="2" ry="2"/><rect class="c" x="818" y="2" rx="2" ry="2"/><rect class="c" x="818" y="18" rx="2" ry="2"/><rect class="c" x="818" y="34" rx="2" ry="2"/><rect class="c" x="818" y="50" rx="2" ry="2"/><rect class="c" x="818" y="66" rx="2" ry="2"/><rect class="c" x="818" y="82" rx="2" ry="2"/><rect class="c" x="818" y="98" rx="2" ry="2"/><rect class="c" x="834" y="2" rx="2" ry="2"/><rect class="u u0" height="12" width="651.7" x="0.0" y="144"/><rect class="u u1" height="12" width="121.7" x="651.1" y="144"/><rect class="u u2" height="12" width="30.9" x="772.3" y="144"/><rect class="u u3" height="12" width="46.0" x="802.6" y="144"/><rect class="s s0" x="0.8" y="0.8" width="14.4" height="14.4" rx="4.5" ry="4.5"/><rect class="s s1" x="1.8" y="1.8" width="12.3" height="12.3" rx="4.1" ry="4.1"/><rect class="s s2" x="2.6" y="2.6" width="10.8" height="10.8" rx="3.6" ry="3.6"/><rect class="s s3" x="3.0" y="3.0" width="9.9" height="9.9" rx="3.3" ry="3.3"/></svg>